 <svg xmlns="http://www.w3.org/2000/svg"  viewBox="0 0 48 48" width="48px" height="48px"><path fill="#90caf9" d="M30.766,9H16.189c-1.702,0-3.081,1.379-3.081,3.081v31.838c0,1.702,1.379,3.081,3.081,3.081h23.622	c1.702,0,3.081-1.379,3.081-3.081V21.126c0-0.53-0.211-1.039-0.586-1.414L32.18,9.586C31.805,9.211,31.297,9,30.766,9z"/><path fill="none" stroke="#18193f" stroke-linecap="round" stroke-linejoin="round" stroke-width="3" d="M32.404,42.5H35.5	c1.657,0,3-1.343,3-3v-23h-8c-1.657,0-3-1.343-3-3v-1.457"/><path fill="none" stroke="#18193f" stroke-linecap="round" stroke-linejoin="round" stroke-width="3" d="M9.5,18.213V39.5	c0,1.657,1.343,3,3,3h14.734"/><path fill="none" stroke="#18193f" stroke-linecap="round" stroke-linejoin="round" stroke-width="3" d="M38.5,16.5l-11-11h-15	c-1.657,0-3,1.343-3,3v3.904"/><line x1="16.489" x2="16.489" y1="23.5" y2="23.5" fill="none" stroke="#18193f" stroke-linecap="round" stroke-width="3"/><line x1="16.489" x2="16.489" y1="29.5" y2="29.5" fill="none" stroke="#18193f" stroke-linecap="round" stroke-width="3"/><line x1="16.489" x2="16.489" y1="35.5" y2="35.5" fill="none" stroke="#18193f" stroke-linecap="round" stroke-width="3"/><line x1="21.383" x2="31.511" y1="23.5" y2="23.5" fill="none" stroke="#18193f" stroke-linecap="round" stroke-width="3"/><line x1="21.383" x2="31.511" y1="29.5" y2="29.5" fill="none" stroke="#18193f" stroke-linecap="round" stroke-width="3"/><line x1="21.383" x2="31.511" y1="35.5" y2="35.5" fill="none" stroke="#18193f" stroke-linecap="round" stroke-width="3"/></svg>